<svg width="213" height="66" viewBox="0 0 213 66" fill="none" xmlns="http://www.w3.org/2000/svg">
<path d="M36.608 53.52C35.6267 53.52 34.6453 53.136 33.664 52.368C32.6827 51.6 31.9787 50.4267 31.552 48.848C31.1253 47.2267 30.8267 45.392 30.656 43.344C30.4853 41.296 30.4 39.0987 30.4 36.752C30.4 33.8507 30.5067 30.8853 30.72 27.856C30.976 24.784 31.296 21.8187 31.68 18.96C32.1067 16.1013 32.5547 13.5627 33.024 11.344C31.2747 11.1307 29.5253 10.9387 27.776 10.768C26.0267 10.5973 24.2347 10.448 22.4 10.32C21.8453 10.2773 21.312 10.256 20.8 10.256C20.288 10.2133 19.776 10.192 19.264 10.192C15.2533 10.192 11.84 10.704 9.024 11.728C6.208 12.7093 4.26667 13.968 3.2 15.504C2.64533 16.3147 2.368 17.168 2.368 18.064C2.368 19.3867 2.96533 20.6453 4.16 21.84C5.39733 22.992 7.18933 23.7387 9.536 24.08C10.6453 24.2507 11.7333 24.3787 12.8 24.464C13.8667 24.5067 14.8693 24.528 15.808 24.528C16.8747 24.528 17.792 24.5067 18.56 24.464C19.3707 24.3787 19.9253 24.3147 20.224 24.272C20.352 24.2293 20.544 24.208 20.8 24.208C21.44 24.208 21.76 24.336 21.76 24.592C21.76 24.848 21.3333 25.1253 20.48 25.424C19.4133 25.7653 18.1547 26.064 16.704 26.32C15.2533 26.576 13.76 26.704 12.224 26.704C10.304 26.704 8.448 26.448 6.656 25.936C4.90667 25.3813 3.456 24.464 2.304 23.184C1.19467 21.8613 0.64 20.048 0.64 17.744C0.64 15.7813 1.13067 14.1387 2.112 12.816C3.136 11.4933 4.45867 10.448 6.08 9.68C7.744 8.86933 9.51467 8.272 11.392 7.888C13.312 7.504 15.1893 7.248 17.024 7.12C18.8587 6.992 20.4587 6.928 21.824 6.928C24.1707 6.928 26.368 7.09866 28.416 7.44C30.5067 7.78133 32.2987 7.952 33.792 7.952H33.856C33.9413 7.65333 34.0267 7.376 34.112 7.12C34.1973 6.864 34.2827 6.608 34.368 6.352C34.4107 6.224 34.496 6.16 34.624 6.16C34.7947 6.11733 34.944 6.096 35.072 6.096C36.1813 6.096 37.0347 6.26666 37.632 6.608C38.2293 6.94933 38.6987 7.568 39.04 8.464L38.912 8.848C41.472 9.31733 44.2667 9.78666 47.296 10.256C50.3253 10.6827 53.0987 10.896 55.616 10.896C56.2133 10.896 57.152 10.8533 58.432 10.768C59.7547 10.6827 61.12 10.4907 62.528 10.192C63.936 9.89333 65.1307 9.44533 66.112 8.848C67.136 8.208 67.648 7.35466 67.648 6.288C67.648 6.07467 67.6267 5.86133 67.584 5.648C67.5413 5.392 67.4347 5.17866 67.264 5.008C67.1787 4.92266 67.136 4.79466 67.136 4.624C67.136 4.41066 67.264 4.304 67.52 4.304C67.8187 4.304 68.0533 4.45333 68.224 4.752C68.6507 5.43466 68.864 6.096 68.864 6.736C68.864 8.10133 68.3307 9.296 67.264 10.32C66.1973 11.3013 64.832 12.0693 63.168 12.624C61.504 13.136 59.7547 13.392 57.92 13.392C54.4213 13.392 51.0507 13.264 47.808 13.008C44.5653 12.7093 41.3867 12.368 38.272 11.984C37.8453 13.9467 37.3547 16.4213 36.8 19.408C36.288 22.3947 35.8187 25.552 35.392 28.88C34.9653 32.208 34.688 35.3867 34.56 38.416C34.56 38.8427 34.5387 39.2907 34.496 39.76C34.496 40.2293 34.496 40.72 34.496 41.232C34.496 42.6827 34.56 44.1547 34.688 45.648C34.8587 47.0987 35.1573 48.3147 35.584 49.296C36.0107 50.2773 36.6507 50.768 37.504 50.768C37.9307 50.768 38.3787 50.6827 38.848 50.512C39.3173 50.3413 39.616 50.1707 39.744 50H40.192C40.1067 51.152 39.7013 52.0267 38.976 52.624C38.2933 53.2213 37.504 53.52 36.608 53.52ZM57.1915 50.32C55.7835 50.32 54.6742 49.872 53.8635 48.976C53.0528 48.0373 52.4768 46.8427 52.1355 45.392C51.8368 43.8987 51.6875 42.2987 51.6875 40.592C51.6875 38.7573 51.7942 36.9653 52.0075 35.216C52.2635 33.424 52.5195 31.8453 52.7755 30.48C53.0742 29.1147 53.2875 28.176 53.4155 27.664C52.2208 27.5787 51.2822 27.3867 50.5995 27.088C49.9168 26.7893 49.3408 26.4267 48.8715 26C48.7008 28.048 48.4235 30.2453 48.0395 32.592C47.6982 34.9387 47.2928 37.2 46.8235 39.376C46.3542 41.5093 45.8422 43.344 45.2875 44.88C45.1168 45.4347 44.8395 45.712 44.4555 45.712C44.1568 45.712 44.0075 45.52 44.0075 45.136C44.0075 45.0507 44.0075 44.944 44.0075 44.816C44.0502 44.688 44.0928 44.56 44.1355 44.432C44.8182 42.4693 45.3942 40.336 45.8635 38.032C46.3328 35.6853 46.6955 33.424 46.9515 31.248C47.2075 29.072 47.3355 27.2587 47.3355 25.808V25.104C46.2688 24.6347 45.4795 23.952 44.9675 23.056C44.4982 22.16 44.2635 21.3067 44.2635 20.496C44.2635 19.8987 44.3702 19.3653 44.5835 18.896C44.8395 18.4267 45.2022 18.192 45.6715 18.192H45.7995C46.3968 18.192 46.9302 18.6187 47.3995 19.472C47.8688 20.2827 48.2528 21.2 48.5515 22.224C48.8502 23.2053 48.9995 23.9947 48.9995 24.592C49.5115 24.976 50.0662 25.2533 50.6635 25.424C51.3035 25.5947 51.8368 25.68 52.2635 25.68C52.8182 25.68 53.1808 25.5947 53.3515 25.424C53.6928 25.0827 54.0982 24.592 54.5675 23.952C55.0795 23.312 55.8688 22.992 56.9355 22.992C57.6608 22.992 58.5355 23.2053 59.5595 23.632C59.0475 24.6987 58.5782 25.9147 58.1515 27.28C57.7248 28.6027 57.3622 30.0107 57.0635 31.504C57.0208 31.8453 56.9142 32.528 56.7435 33.552C56.5728 34.576 56.4235 35.7493 56.2955 37.072C56.1675 38.3947 56.1035 39.7173 56.1035 41.04C56.1035 42.9173 56.2955 44.5813 56.6795 46.032C57.1062 47.44 57.8742 48.144 58.9835 48.144C59.6662 48.144 60.2635 47.8667 60.7755 47.312C61.2875 46.7573 61.7355 46.0747 62.1195 45.264C62.5035 44.4107 62.8235 43.6 63.0795 42.832C63.3355 42.0213 63.5275 41.3813 63.6555 40.912C63.7408 40.528 63.9115 40.336 64.1675 40.336C64.3808 40.336 64.4875 40.5707 64.4875 41.04V41.36C64.4875 43.3227 64.1248 44.9867 63.3995 46.352C62.7168 47.6747 61.8208 48.6773 60.7115 49.36C59.6022 50 58.4288 50.32 57.1915 50.32ZM68.4625 50.256C67.5238 50.256 66.6705 49.872 65.9025 49.104C65.1772 48.336 64.6438 47.1627 64.3025 45.584C64.1318 44.8587 64.0038 43.9413 63.9185 42.832C63.8758 41.7227 63.8545 40.5493 63.8545 39.312C63.8545 37.4347 63.9185 35.4933 64.0465 33.488C64.2172 31.4827 64.4305 29.648 64.6865 27.984C64.9425 26.2773 65.2412 24.976 65.5825 24.08C65.7958 23.568 66.1798 23.12 66.7345 22.736C67.3318 22.352 68.0998 22.16 69.0385 22.16C69.6785 22.16 70.3185 22.2453 70.9585 22.416C70.8305 22.8853 70.5745 23.9947 70.1905 25.744C69.8492 27.4933 69.5505 29.4347 69.2945 31.568C69.1238 33.0613 68.9745 34.5973 68.8465 36.176C68.7185 37.712 68.6545 39.1627 68.6545 40.528C68.6545 42.2773 68.8038 43.7493 69.1025 44.944C69.4012 46.096 69.8918 46.672 70.5745 46.672C71.3852 46.672 72.0892 46.2027 72.6865 45.264C73.3265 44.2827 73.8812 43.0667 74.3505 41.616C74.8198 40.1653 75.1825 38.7147 75.4385 37.264C75.8225 35.1307 76.1638 32.848 76.4625 30.416C76.7612 27.9413 77.1025 25.8293 77.4865 24.08C77.6145 23.568 77.9772 23.12 78.5745 22.736C79.2145 22.352 80.0038 22.16 80.9425 22.16C81.5825 22.16 82.2225 22.2453 82.8625 22.416C82.5212 23.3547 82.1798 24.7627 81.8385 26.64C81.5398 28.5173 81.2838 30.5867 81.0705 32.848C80.8572 35.1093 80.7505 37.3493 80.7505 39.568C80.7505 40.6773 80.7932 41.8933 80.8785 43.216C81.0065 44.5387 81.2412 45.6693 81.5825 46.608C81.9665 47.5467 82.4998 48.016 83.1825 48.016H83.2465C83.5878 48.016 83.9505 47.8453 84.3345 47.504C84.7612 47.1627 85.2092 46.5227 85.6785 45.584C86.0198 44.9867 86.3185 44.2827 86.5745 43.472C86.8305 42.6613 87.1078 41.7867 87.4065 40.848C87.5772 40.464 87.7478 40.272 87.9185 40.272C88.1318 40.272 88.2385 40.528 88.2385 41.04V41.296C88.1532 42.4053 87.8545 43.664 87.3425 45.072C86.8305 46.48 86.1052 47.696 85.1665 48.72C84.2705 49.744 83.1825 50.256 81.9025 50.256C80.4518 50.256 79.2998 49.744 78.4465 48.72C77.5932 47.6533 76.9745 46.3733 76.5905 44.88C76.2065 43.344 75.9718 41.872 75.8865 40.464C75.5878 41.5733 75.2465 42.6827 74.8625 43.792C74.4785 44.9013 74.0092 45.8827 73.4545 46.736C71.9185 49.0827 70.2545 50.256 68.4625 50.256ZM93.6845 50.704C91.7645 50.704 90.1432 50.256 88.8205 49.36C87.5405 48.4213 86.9005 46.7787 86.9005 44.432C86.9005 44.3467 86.9005 44.1547 86.9005 43.856C86.9432 43.5147 86.9858 43.1733 87.0285 42.832C86.7725 42.3627 86.6445 41.7227 86.6445 40.912C86.6445 40.4 86.7298 39.952 86.9005 39.568C87.0712 39.184 87.3272 38.992 87.6685 38.992H87.7325C87.8605 38.992 88.0312 39.1413 88.2445 39.44C88.7992 37.8613 89.3112 36.24 89.7805 34.576C90.2498 32.8693 90.6765 31.3547 91.0605 30.032C91.4872 28.496 92.0205 26.8533 92.6605 25.104C93.3432 23.312 94.4098 21.9467 95.8605 21.008C96.9698 20.2827 98.1645 19.92 99.4445 19.92C99.5298 19.92 99.6365 19.9413 99.7645 19.984C99.8925 19.984 99.9992 19.984 100.085 19.984C100.426 20.0267 100.597 20.176 100.597 20.432C100.597 20.7307 100.447 20.88 100.149 20.88C99.6792 20.9227 99.3378 21.3067 99.1245 22.032C98.9112 22.7147 98.8045 23.504 98.8045 24.4C98.8045 24.6133 98.8045 24.848 98.8045 25.104C98.8045 25.36 98.8258 25.5947 98.8685 25.808C99.0392 27.216 99.4232 28.7733 100.021 30.48C100.618 32.144 101.173 33.8293 101.685 35.536C102.239 37.2 102.517 38.7573 102.517 40.208V40.528C102.517 41.0827 102.474 41.68 102.389 42.32C102.346 42.96 102.218 43.5787 102.005 44.176C102.602 44.1333 103.178 44.0693 103.733 43.984C104.33 43.856 104.863 43.7067 105.333 43.536C105.93 43.28 106.399 42.9813 106.741 42.64C107.125 42.2987 107.445 41.9147 107.701 41.488C107.786 41.36 107.893 41.296 108.021 41.296C108.362 41.296 108.533 41.5093 108.533 41.936C108.533 42.064 108.49 42.2133 108.405 42.384C107.935 43.3227 107.082 44.0907 105.845 44.688C104.607 45.2853 103.157 45.6267 101.493 45.712C100.895 47.0773 99.9565 48.2507 98.6765 49.232C97.4392 50.2133 95.7752 50.704 93.6845 50.704ZM96.7565 43.472C96.8418 43.0027 96.9058 42.512 96.9485 42C96.9912 41.488 97.0125 40.976 97.0125 40.464C97.0125 39.6533 96.9698 38.8427 96.8845 38.032C96.7992 37.1787 96.6925 36.3467 96.5645 35.536C96.2658 33.5307 95.9032 31.696 95.4765 30.032C95.0925 28.368 94.9005 26.8747 94.9005 25.552C94.9005 24.8693 94.9645 24.2507 95.0925 23.696C94.8792 23.696 94.6445 24.016 94.3885 24.656C94.1325 25.296 93.8765 26.0213 93.6205 26.832C93.3645 27.6427 93.1512 28.368 92.9805 29.008C92.4685 30.8427 91.9138 32.7413 91.3165 34.704C90.7192 36.624 90.0792 38.5227 89.3965 40.4C89.8658 40.6987 90.3992 40.9973 90.9965 41.296C91.6365 41.5947 92.2552 41.872 92.8525 42.128C93.4072 42.384 94.0045 42.64 94.6445 42.896C95.3272 43.1093 96.0312 43.3013 96.7565 43.472ZM91.9565 48.592H92.2125C92.9805 48.5067 93.7485 48.2507 94.5165 47.824C95.2845 47.3547 95.8392 46.6507 96.1805 45.712C96.1805 45.6693 96.1805 45.648 96.1805 45.648C96.2232 45.6053 96.2445 45.5627 96.2445 45.52C94.6658 45.392 93.1725 45.2 91.7645 44.944C90.3992 44.6453 89.2898 44.2827 88.4365 43.856C88.4365 43.984 88.4152 44.112 88.3725 44.24C88.3725 44.368 88.3725 44.4747 88.3725 44.56C88.3725 45.84 88.6925 46.8427 89.3325 47.568C90.0152 48.2507 90.8898 48.592 91.9565 48.592ZM113.552 50.32C112.272 50.32 111.227 49.9147 110.416 49.104C109.648 48.2933 109.051 47.2693 108.624 46.032C108.197 44.7947 107.899 43.5147 107.728 42.192C107.6 40.8693 107.536 39.696 107.536 38.672V37.712C107.579 37.2 107.621 36.24 107.664 34.832C107.707 33.424 107.771 31.7813 107.856 29.904C107.941 27.984 108.069 26.0427 108.24 24.08H106.256C105.915 24.08 105.744 23.8667 105.744 23.44C105.744 23.2267 105.829 23.0133 106 22.8C106.128 22.544 106.299 22.416 106.512 22.416H108.368C108.539 20.4107 108.731 18.5973 108.944 16.976C109.157 15.3547 109.413 14.2027 109.712 13.52C109.925 13.0507 110.309 12.6453 110.864 12.304C111.419 11.92 112.165 11.728 113.104 11.728C113.36 11.728 113.637 11.7493 113.936 11.792C114.277 11.8347 114.597 11.8987 114.896 11.984C114.683 12.7093 114.427 14.032 114.128 15.952C113.872 17.8293 113.637 19.984 113.424 22.416H118.544C118.928 22.416 119.12 22.6507 119.12 23.12C119.12 23.3333 119.056 23.5467 118.928 23.76C118.8 23.9733 118.608 24.08 118.352 24.08H113.232C113.019 26.4267 112.848 28.8587 112.72 31.376C112.592 33.8507 112.507 36.1333 112.464 38.224V39.696C112.464 40.8053 112.507 42.0213 112.592 43.344C112.677 44.6667 112.891 45.7973 113.232 46.736C113.573 47.6747 114.085 48.144 114.768 48.144H114.832C115.173 48.144 115.536 47.9733 115.92 47.632C116.347 47.2907 116.795 46.6507 117.264 45.712C117.605 45.1147 117.904 44.4107 118.16 43.6C118.459 42.7467 118.757 41.8507 119.056 40.912C119.227 40.528 119.397 40.336 119.568 40.336C119.781 40.336 119.888 40.592 119.888 41.104V41.36C119.803 42.4693 119.504 43.728 118.992 45.136C118.48 46.544 117.755 47.76 116.816 48.784C115.92 49.808 114.832 50.32 113.552 50.32ZM191.804 65.168C190.396 65.168 189.031 64.7627 187.708 63.952C185.745 62.7147 184.38 60.8373 183.612 58.32C182.844 55.8453 182.46 53.1147 182.46 50.128C182.46 47.44 182.673 44.688 183.1 41.872C183.527 39.0133 183.996 36.3253 184.508 33.808C185.063 31.248 185.532 29.0507 185.916 27.216C186.513 24.3147 187.111 21.456 187.708 18.64C188.348 15.7813 188.775 13.1787 188.988 10.832C189.031 10.4907 189.052 10.192 189.052 9.936C189.052 9.68 189.052 9.424 189.052 9.168C189.052 7.12 188.54 6.096 187.516 6.096H187.452C186.087 6.096 184.615 6.82133 183.036 8.272C181.457 9.68 179.879 11.6427 178.3 14.16C176.764 16.6347 175.335 19.4933 174.012 22.736C172.263 27.1307 170.983 31.0987 170.172 34.64C169.404 38.1387 168.828 41.488 168.444 44.688C168.316 45.6267 167.975 46.3947 167.42 46.992C166.908 47.5467 166.311 47.8667 165.628 47.952H165.372C164.945 47.952 164.497 47.8453 164.028 47.632C163.559 47.376 163.324 47.0347 163.324 46.608V46.416C163.836 43.8987 164.241 41.4453 164.54 39.056C164.881 36.6667 165.18 34.192 165.436 31.632C165.607 30.1387 165.713 28.7307 165.756 27.408C165.841 26.0427 165.884 24.7627 165.884 23.568C165.884 18.7467 165.372 15.1627 164.348 12.816C163.367 10.4693 162.129 9.296 160.636 9.296C158.887 9.296 156.967 10.896 154.876 14.096C152.828 17.296 151.015 22.0107 149.436 28.24C149.18 29.3067 148.881 30.992 148.54 33.296C148.241 35.6 147.964 38.3733 147.708 41.616C147.452 44.8587 147.239 48.4213 147.068 52.304C146.983 53.5413 146.087 54.16 144.38 54.16C143.612 54.16 142.887 53.9467 142.204 53.52C141.521 53.136 141.159 52.7093 141.116 52.24C141.287 51.0453 141.521 49.424 141.82 47.376C142.119 45.328 142.417 43.0027 142.716 40.4C143.015 37.7973 143.249 35.088 143.42 32.272C143.548 30.096 143.612 28.0693 143.612 26.192C143.612 20.7733 143.143 16.4 142.204 13.072C141.308 9.744 140.113 7.312 138.62 5.776C137.127 4.19733 135.505 3.408 133.756 3.408C132.22 3.408 130.684 3.96266 129.148 5.072C127.612 6.13866 126.204 7.67466 124.924 9.68C123.644 11.6427 122.577 13.904 121.724 16.464C120.913 18.9813 120.508 21.9467 120.508 25.36C120.508 27.024 120.849 28.4747 121.532 29.712C122.257 30.9493 123.303 31.568 124.668 31.568C125.521 31.568 126.439 31.2907 127.42 30.736C127.463 30.6933 127.527 30.672 127.612 30.672C127.868 30.672 127.996 30.8427 127.996 31.184C127.996 31.5253 127.783 31.824 127.356 32.08C125.905 32.8907 124.497 33.296 123.132 33.296C121.425 33.296 120.039 32.6347 118.972 31.312C117.905 29.9893 117.372 28.112 117.372 25.68C117.372 23.2053 117.841 20.4533 118.78 17.424C119.719 14.3947 121.105 11.5787 122.94 8.976C124.689 6.50133 126.545 4.53866 128.508 3.088C130.513 1.63733 132.625 0.911999 134.844 0.911999C137.404 0.911999 139.516 1.50933 141.18 2.704C142.844 3.856 144.167 5.392 145.148 7.312C146.129 9.232 146.855 11.3227 147.324 13.584C147.793 15.8453 148.092 18.1067 148.22 20.368C148.391 22.5867 148.476 24.592 148.476 26.384C149.415 22.032 150.673 18.32 152.252 15.248C153.873 12.1333 155.623 9.744 157.5 8.08C159.42 6.416 161.233 5.584 162.94 5.584C164.945 5.584 166.631 6.8 167.996 9.232C169.404 11.6213 170.108 15.44 170.108 20.688C170.108 21.456 170.087 22.2667 170.044 23.12C170.001 23.9733 169.937 24.8693 169.852 25.808C169.852 25.9787 169.831 26.3413 169.788 26.896C169.745 27.4507 169.703 28.0267 169.66 28.624C169.959 27.856 170.3 26.9387 170.684 25.872C171.111 24.7627 171.452 23.9093 171.708 23.312C172.689 20.9227 173.799 18.5333 175.036 16.144C176.273 13.712 177.639 11.4933 179.132 9.488C180.625 7.48267 182.204 5.88267 183.868 4.688C185.532 3.45066 187.26 2.832 189.052 2.832H189.372C192.572 2.832 194.172 5.264 194.172 10.128C194.172 11.408 194.065 12.8587 193.852 14.48C193.681 16.0587 193.361 17.808 192.892 19.728C192.764 20.368 192.487 21.4773 192.06 23.056C191.633 24.592 191.143 26.4267 190.588 28.56C190.033 30.6507 189.479 32.848 188.924 35.152C188.369 37.456 187.879 39.696 187.452 41.872C187.111 43.7067 186.833 45.52 186.62 47.312C186.407 49.104 186.3 50.8107 186.3 52.432C186.3 55.4187 186.727 57.872 187.58 59.792C188.476 61.7547 190.033 62.736 192.252 62.736C193.575 62.736 194.791 62.416 195.9 61.776C197.009 61.136 197.82 60.3467 198.332 59.408C198.46 59.152 198.631 59.024 198.844 59.024C199.1 59.024 199.228 59.1733 199.228 59.472V59.536C199.228 60.432 198.865 61.3067 198.14 62.16C197.457 63.056 196.561 63.7813 195.452 64.336C194.343 64.8907 193.127 65.168 191.804 65.168ZM203.803 51.216C201.755 51.216 200.091 50.5973 198.811 49.36C197.573 48.08 196.656 46.5227 196.059 44.688C195.504 42.8107 195.227 40.976 195.227 39.184C195.227 37.136 195.44 35.088 195.867 33.04C196.293 30.9493 196.955 29.0507 197.851 27.344C198.789 25.6373 199.963 24.272 201.371 23.248C202.779 22.1813 204.443 21.648 206.363 21.648C207.728 21.648 208.795 22.0533 209.562 22.864C210.331 23.6747 210.715 24.8693 210.715 26.448C210.715 28.5813 210.181 30.48 209.115 32.144C208.091 33.7653 206.789 35.088 205.211 36.112C203.632 37.136 201.989 37.84 200.283 38.224V38.544C200.283 40.2933 200.453 41.936 200.795 43.472C201.179 44.9653 201.776 46.1813 202.587 47.12C203.44 48.016 204.549 48.464 205.915 48.464C207.579 48.464 208.859 47.7813 209.755 46.416C210.651 45.008 211.355 43.2373 211.867 41.104C211.909 40.9333 211.973 40.784 212.059 40.656C212.187 40.4853 212.293 40.4 212.378 40.4C212.763 40.4 212.933 40.6773 212.891 41.232C212.763 42.384 212.507 43.472 212.123 44.496C211.739 45.52 211.333 46.3947 210.907 47.12C210.096 48.4427 209.115 49.4453 207.963 50.128C206.853 50.8533 205.467 51.216 203.803 51.216ZM200.347 36.752C201.712 36.4107 202.907 35.7493 203.931 34.768C204.955 33.744 205.744 32.5493 206.299 31.184C206.896 29.8187 207.195 28.432 207.195 27.024V26.704C207.195 25.936 207.067 25.2107 206.811 24.528C206.597 23.8453 206.171 23.504 205.531 23.504C204.763 23.504 204.08 23.888 203.483 24.656C202.928 25.3813 202.437 26.32 202.01 27.472C201.627 28.624 201.307 29.8187 201.051 31.056C200.795 32.2933 200.603 33.424 200.475 34.448C200.389 35.472 200.347 36.2187 200.347 36.688V36.752Z" fill="#0E0D0D"/>
</svg>
